# xmcd
#
# Track frame offsets: 
#        150
#        11803
#        25220
#        41955
#        48910
#        66640
#        75705
#        89290
#        104465
#        118210
#        130235
#        139745
#        148210
#        159690
#        169650
#        174905
#        182575
#
# Disc length: 2473 seconds
#
# Revision: 0
# Processed by: cddbd v1.5.2PL0 Copyright (c) Steve Scherf et al.
# Submitted via: ExactAudioCopy v1.0b1
#
DISCID=f509a711
DTITLE=Elvis Presley  - From Louisiana To Tennessee  
DYEAR=1900
DGENRE=
TTITLE0=Love Me
TTITLE1=If You Love Me
TTITLE2=You Gave Me A Mountain
TTITLE3=Jailhouse Rock
TTITLE4=O Sole Mio It's Now Or Neve
TTITLE5=Little Sister
TTITLE6=Teddy Bear Don't Be Cruel
TTITLE7=And I Love You So
TTITLE8=Fever
TTITLE9=Love Me Tender
TTITLE10=Hurt
TTITLE11=Hound Dog
TTITLE12=Danny Boy (S. Nielsen)
TTITLE13=Walk With Me (S. Nielsen)
TTITLE14=Blue Suede Shoes
TTITLE15=Can't Help Falling In Love
TTITLE16=Closing Vamp
EXTD=
EXTT0=
EXTT1=
EXTT2=
EXTT3=
EXTT4=
EXTT5=
EXTT6=
EXTT7=
EXTT8=
EXTT9=
EXTT10=
EXTT11=
EXTT12=
EXTT13=
EXTT14=
EXTT15=
EXTT16=
PLAYORDER=
